<?xml version="1.0" standalone="no"?>
<!DOCTYPE svg PUBLIC "-//W3C//DTD SVG 20010904//EN"
 "http://www.w3.org/TR/2001/REC-SVG-20010904/DTD/svg10.dtd">
<svg version="1.0" xmlns="http://www.w3.org/2000/svg"
 width="512.000000pt" height="512.000000pt" viewBox="0 0 512.000000 512.000000"
 preserveAspectRatio="xMidYMid meet">
<metadata>
Created by potrace 1.14, written by Peter Selinger 2001-2017
</metadata>
<g transform="translate(0.000000,512.000000) scale(0.100000,-0.100000)"
fill="#000000" stroke="none">
<path d="M2635 4987 c-110 -37 -165 -94 -213 -223 -41 -109 -96 -321 -111
-429 -20 -141 -4 -134 -140 -66 -149 75 -280 151 -445 257 -71 46 -140 84
-153 84 -38 0 -79 -26 -93 -60 -11 -27 -10 -47 9 -143 21 -104 95 -342 135
-429 l16 -38 -48 0 c-193 0 -608 52 -845 106 -59 13 -118 22 -132 18 -33 -8
-75 -59 -75 -90 0 -14 6 -37 14 -53 17 -32 175 -184 240 -232 25 -18 46 -35
46 -39 0 -3 -17 -14 -38 -24 -20 -10 -89 -52 -152 -94 -133 -88 -297 -245
-379 -362 -357 -509 -360 -1323 -7 -1923 235 -400 618 -713 1116 -910 717
-286 1674 -282 2384 9 338 138 590 306 817 542 285 296 451 633 516 1047 26
162 23 480 -5 635 -83 460 -339 814 -755 1044 l-67 38 34 46 c77 107 83 147
32 198 -19 19 -42 34 -52 34 -11 0 -68 -10 -129 -21 -172 -31 -676 -39 -675
-11 1 23 263 190 397 254 73 34 93 58 93 111 0 29 -7 46 -29 68 -29 28 -31 29
-138 29 -236 0 -557 -36 -768 -86 -60 -14 -122 -28 -137 -31 l-26 -5 19 93
c11 52 38 146 60 210 50 149 52 209 8 297 -32 64 -81 111 -142 137 -52 22
-136 27 -182 12z m-719 -812 c50 -27 150 -79 222 -115 l132 -65 0 -82 c0 -58
6 -98 20 -137 72 -192 325 -248 471 -103 63 63 82 113 88 237 l6 104 75 23
c136 42 539 115 513 93 -5 -4 -68 -55 -141 -115 -73 -60 -140 -118 -148 -129
-24 -35 -18 -94 14 -125 22 -23 45 -31 117 -45 181 -33 265 -40 493 -40 127 0
232 -1 232 -2 0 -7 -143 -96 -196 -122 -210 -106 -536 -172 -842 -172 -73 0
-142 -5 -152 -10 -11 -6 -63 -54 -117 -108 -108 -107 -251 -209 -379 -268 -73
-35 -275 -106 -282 -100 -1 2 18 45 42 97 49 102 116 293 116 328 0 31 -26 78
-50 91 -12 6 -80 20 -152 31 -365 54 -727 175 -938 314 -54 35 -54 35 -20 30
205 -31 700 -63 785 -51 32 5 51 15 70 37 35 43 33 86 -9 151 -50 79 -90 163
-125 261 -17 49 -31 91 -31 94 0 3 21 -8 48 -23 26 -16 88 -51 138 -79z"/>
</g>
</svg>
